<svg width="17" height="22" viewBox="0 0 17 22" fill="none" xmlns="http://www.w3.org/2000/svg">
<path d="M3.29175 0.583374H13.7084C14.5372 0.583374 15.3321 0.912614 15.9181 1.49867C16.5042 2.08472 16.8334 2.87957 16.8334 3.70837V18.2917C16.8334 19.1205 16.5042 19.9154 15.9181 20.5014C15.3321 21.0875 14.5372 21.4167 13.7084 21.4167H3.29175C2.46295 21.4167 1.66809 21.0875 1.08204 20.5014C0.495988 19.9154 0.166748 19.1205 0.166748 18.2917L0.166748 3.70837C0.166748 2.87957 0.495988 2.08472 1.08204 1.49867C1.66809 0.912614 2.46295 0.583374 3.29175 0.583374ZM4.33341 7.87504C4.05715 7.87504 3.7922 7.98479 3.59684 8.18014C3.40149 8.37549 3.29175 8.64044 3.29175 8.91671C3.29175 9.19298 3.40149 9.45793 3.59684 9.65328C3.7922 9.84863 4.05715 9.95837 4.33341 9.95837H12.6667C12.943 9.95837 13.208 9.84863 13.4033 9.65328C13.5987 9.45793 13.7084 9.19298 13.7084 8.91671C13.7084 8.64044 13.5987 8.37549 13.4033 8.18014C13.208 7.98479 12.943 7.87504 12.6667 7.87504H4.33341ZM4.33341 16.2084C4.05715 16.2084 3.7922 16.3181 3.59684 16.5135C3.40149 16.7088 3.29175 16.9738 3.29175 17.25C3.29175 17.5263 3.40149 17.7913 3.59684 17.9866C3.7922 18.182 4.05715 18.2917 4.33341 18.2917H9.54175C9.81802 18.2917 10.083 18.182 10.2783 17.9866C10.4737 17.7913 10.5834 17.5263 10.5834 17.25C10.5834 16.9738 10.4737 16.7088 10.2783 16.5135C10.083 16.3181 9.81802 16.2084 9.54175 16.2084H4.33341ZM4.33341 3.70837C4.05715 3.70837 3.7922 3.81812 3.59684 4.01347C3.40149 4.20882 3.29175 4.47377 3.29175 4.75004C3.29175 5.02631 3.40149 5.29126 3.59684 5.48661C3.7922 5.68196 4.05715 5.79171 4.33341 5.79171H12.6667C12.943 5.79171 13.208 5.68196 13.4033 5.48661C13.5987 5.29126 13.7084 5.02631 13.7084 4.75004C13.7084 4.47377 13.5987 4.20882 13.4033 4.01347C13.208 3.81812 12.943 3.70837 12.6667 3.70837H4.33341ZM4.33341 12.0417C4.05715 12.0417 3.7922 12.1515 3.59684 12.3468C3.40149 12.5422 3.29175 12.8071 3.29175 13.0834C3.29175 13.3596 3.40149 13.6246 3.59684 13.8199C3.7922 14.0153 4.05715 14.125 4.33341 14.125H12.6667C12.943 14.125 13.208 14.0153 13.4033 13.8199C13.5987 13.6246 13.7084 13.3596 13.7084 13.0834C13.7084 12.8071 13.5987 12.5422 13.4033 12.3468C13.208 12.1515 12.943 12.0417 12.6667 12.0417H4.33341Z" fill="gray" fill-opacity="0.3"/>
</svg>
