<svg width="18" height="15" viewBox="0 0 18 15" fill="none" xmlns="http://www.w3.org/2000/svg">
<path d="M16.0847 0.906006H2.41697C1.47731 0.906006 0.717038 1.67482 0.717038 2.61448L0.708496 12.8653C0.708496 13.805 1.47731 14.5738 2.41697 14.5738H16.0847C17.0244 14.5738 17.7932 13.805 17.7932 12.8653V2.61448C17.7932 1.67482 17.0244 0.906006 16.0847 0.906006ZM15.743 4.53651L9.70359 8.31223C9.43024 8.48307 9.07146 8.48307 8.7981 8.31223L2.75866 4.53651C2.673 4.48842 2.598 4.42346 2.53817 4.34554C2.47835 4.26763 2.43496 4.17839 2.41062 4.08322C2.38629 3.98806 2.38152 3.88894 2.3966 3.79187C2.41168 3.69481 2.4463 3.60181 2.49836 3.51851C2.55042 3.43522 2.61884 3.36335 2.69948 3.30726C2.78013 3.25117 2.87131 3.21202 2.96752 3.19219C3.06372 3.17237 3.16296 3.17226 3.2592 3.1919C3.35545 3.21153 3.44672 3.25048 3.52747 3.30641L9.25085 6.88565L14.9742 3.30641C15.055 3.25048 15.1462 3.21153 15.2425 3.1919C15.3387 3.17226 15.438 3.17237 15.5342 3.19219C15.6304 3.21202 15.7216 3.25117 15.8022 3.30726C15.8829 3.36335 15.9513 3.43522 16.0033 3.51851C16.0554 3.60181 16.09 3.69481 16.1051 3.79187C16.1202 3.88894 16.1154 3.98806 16.0911 4.08322C16.0667 4.17839 16.0233 4.26763 15.9635 4.34554C15.9037 4.42346 15.8287 4.48842 15.743 4.53651Z" fill="black"/>
</svg>
