<svg width="18" height="26" viewBox="0 0 18 26" fill="none" xmlns="http://www.w3.org/2000/svg">
<path d="M17.75 9.25C17.75 8.10093 17.5237 6.96312 17.0839 5.90152C16.6442 4.83992 15.9997 3.87533 15.1872 3.06282C14.3747 2.2503 13.4101 1.60578 12.3485 1.16605C11.2869 0.726325 10.1491 0.5 9 0.5C7.85093 0.5 6.71312 0.726325 5.65152 1.16605C4.58992 1.60578 3.62533 2.2503 2.81282 3.06282C2.0003 3.87533 1.35578 4.83992 0.916054 5.90152C0.476325 6.96312 0.25 8.10093 0.25 9.25C0.25 10.9838 0.76125 12.5963 1.63125 13.9563H1.62125L9 25.5L16.3787 13.9563H16.37C17.2712 12.552 17.7501 10.9185 17.75 9.25ZM9 13C8.00544 13 7.05161 12.6049 6.34835 11.9017C5.64509 11.1984 5.25 10.2446 5.25 9.25C5.25 8.25544 5.64509 7.30161 6.34835 6.59835C7.05161 5.89509 8.00544 5.5 9 5.5C9.99456 5.5 10.9484 5.89509 11.6517 6.59835C12.3549 7.30161 12.75 8.25544 12.75 9.25C12.75 10.2446 12.3549 11.1984 11.6517 11.9017C10.9484 12.6049 9.99456 13 9 13Z" fill="black"/>
</svg>
