<svg width="20" height="20" viewBox="0 0 20 20" fill="none" xmlns="http://www.w3.org/2000/svg">
<path fill-rule="evenodd" clip-rule="evenodd" d="M19.4766 9.73828C19.4766 15.1187 15.1187 19.4766 9.73828 19.4766C4.35788 19.4766 0 15.1187 0 9.73828C0 4.35788 4.35788 0 9.73828 0C15.1187 0 19.4766 4.35788 19.4766 9.73828ZM4.86914 16.7377C5.06391 16.4139 6.9507 13.3901 9.72611 13.3901C12.4893 13.3901 14.3883 16.4212 14.5831 16.7377C15.715 15.9549 16.6398 14.909 17.2781 13.6897C17.9163 12.4705 18.2489 11.1145 18.2471 9.73828C18.2471 5.02739 14.437 1.21729 9.72611 1.21729C5.01521 1.21729 1.20511 5.02739 1.20511 9.73828C1.20511 12.6354 2.65368 15.2039 4.86914 16.7377Z" fill="black"/>
</svg>
