<svg width="16" height="17" viewBox="0 0 16 17" fill="none" xmlns="http://www.w3.org/2000/svg">
<path d="M15.042 16.1773C13.2624 16.1773 11.5041 15.7894 9.76713 15.0138C8.03018 14.2381 6.44985 13.1382 5.02612 11.7139C3.6024 10.2896 2.50271 8.70925 1.72707 6.97288C0.951421 5.2365 0.563314 3.4782 0.562744 1.69797C0.562744 1.4417 0.648168 1.22814 0.819015 1.0573C0.989862 0.886449 1.20342 0.801025 1.45969 0.801025H4.91934C5.11867 0.801025 5.29663 0.868795 5.45324 1.00433C5.60985 1.13987 5.70239 1.2999 5.73087 1.48441L6.28612 4.47424C6.31459 4.70203 6.30748 4.89424 6.26476 5.05085C6.22205 5.20746 6.14375 5.34271 6.02985 5.45661L3.95833 7.54948C4.24307 8.07626 4.58107 8.5851 4.97231 9.076C5.36355 9.5669 5.79437 10.0404 6.26476 10.4966C6.70612 10.938 7.16883 11.3474 7.6529 11.725C8.13696 12.1026 8.6495 12.4477 9.19052 12.7603L11.198 10.7529C11.3261 10.6247 11.4935 10.5288 11.7003 10.465C11.907 10.4012 12.1097 10.3833 12.3085 10.4112L15.2556 11.0091C15.4549 11.0661 15.6186 11.1694 15.7468 11.3192C15.8749 11.469 15.939 11.6361 15.939 11.8207V15.2803C15.939 15.5366 15.8536 15.7501 15.6827 15.921C15.5119 16.0918 15.2983 16.1773 15.042 16.1773Z" fill="black"/>
</svg>
