<svg width="14" height="10" viewBox="0 0 14 10" fill="none" xmlns="http://www.w3.org/2000/svg">
<path d="M8.46993 1.53003C8.39624 1.46137 8.33714 1.37857 8.29615 1.28657C8.25515 1.19457 8.23311 1.09526 8.23134 0.994554C8.22956 0.893851 8.24808 0.793822 8.2858 0.700433C8.32353 0.607045 8.37967 0.522211 8.45089 0.450993C8.52211 0.379774 8.60694 0.323629 8.70033 0.285908C8.79372 0.248187 8.89375 0.229663 8.99445 0.23144C9.09515 0.233217 9.19447 0.255258 9.28647 0.29625C9.37847 0.337242 9.46127 0.396344 9.52993 0.470031L13.5299 4.47003C13.6704 4.61066 13.7493 4.80128 13.7493 5.00003C13.7493 5.19878 13.6704 5.38941 13.5299 5.53003L9.52993 9.53003C9.46126 9.60372 9.37846 9.66282 9.28647 9.70381C9.19447 9.7448 9.09515 9.76685 8.99445 9.76862C8.89375 9.7704 8.79372 9.75187 8.70033 9.71415C8.60694 9.67643 8.52211 9.62029 8.45089 9.54907C8.37967 9.47785 8.32353 9.39302 8.2858 9.29963C8.24808 9.20624 8.22956 9.10621 8.23134 9.00551C8.23311 8.90481 8.25515 8.80549 8.29615 8.71349C8.33714 8.62149 8.39624 8.53869 8.46993 8.47003L11.1899 5.75003L1.49993 5.75003C1.30101 5.75003 1.11025 5.67101 0.969597 5.53036C0.828944 5.38971 0.749927 5.19894 0.749927 5.00003C0.749927 4.80112 0.828944 4.61035 0.969597 4.4697C1.11025 4.32905 1.30101 4.25003 1.49993 4.25003L11.1899 4.25003L8.46993 1.53003Z" fill="white"/>
</svg>
