<svg width="23" height="22" viewBox="0 0 23 22" fill="none" xmlns="http://www.w3.org/2000/svg">
<path d="M13.6656 0.0625C13.831 0.0625052 13.9922 0.115006 14.1258 0.212441C14.2595 0.309877 14.3588 0.447219 14.4094 0.604688L15.2688 3.275C15.6297 3.45156 15.975 3.65 16.3047 3.87344L19.0485 3.28281C19.2102 3.24827 19.3788 3.26597 19.5299 3.33337C19.6809 3.40076 19.8067 3.51436 19.8891 3.65781L22.0547 7.40625C22.1374 7.54962 22.1724 7.71555 22.1547 7.88011C22.137 8.04467 22.0675 8.19936 21.9563 8.32187L20.0735 10.4C20.1009 10.7985 20.1009 11.1984 20.0735 11.5969L21.9563 13.6781C22.0675 13.8006 22.137 13.9553 22.1547 14.1199C22.1724 14.2845 22.1374 14.4504 22.0547 14.5938L19.8891 18.3438C19.8065 18.4869 19.6806 18.6002 19.5296 18.6673C19.3785 18.7344 19.2101 18.7519 19.0485 18.7172L16.3047 18.1266C15.9766 18.3484 15.6297 18.5484 15.2703 18.725L14.4094 21.3953C14.3588 21.5528 14.2595 21.6901 14.1258 21.7876C13.9922 21.885 13.831 21.9375 13.6656 21.9375H9.33439C9.16899 21.9375 9.00786 21.885 8.8742 21.7876C8.74054 21.6901 8.64125 21.5528 8.59064 21.3953L7.73283 18.7266C7.37287 18.5505 7.02567 18.3495 6.69377 18.125L3.95158 18.7172C3.78981 18.7517 3.62124 18.734 3.47017 18.6666C3.31911 18.5992 3.19333 18.4856 3.11095 18.3422L0.945329 14.5938C0.862633 14.4504 0.827606 14.2845 0.845297 14.1199C0.862989 13.9553 0.932486 13.8006 1.04377 13.6781L2.92658 11.5969C2.8993 11.1994 2.8993 10.8006 2.92658 10.4031L1.04377 8.32187C0.932486 8.19936 0.862989 8.04467 0.845297 7.88011C0.827606 7.71555 0.862633 7.54962 0.945329 7.40625L3.11095 3.65625C3.19355 3.51308 3.31943 3.3998 3.47048 3.3327C3.62153 3.2656 3.78997 3.24813 3.95158 3.28281L6.69377 3.875C7.02502 3.65156 7.37189 3.45 7.73283 3.27344L8.5922 0.604688C8.64265 0.447726 8.74146 0.310748 8.8745 0.213359C9.00753 0.115971 9.16796 0.0631651 9.33283 0.0625H13.6641H13.6656ZM13.0938 1.625H9.90627L9.01877 4.38594L8.42033 4.67812C8.12613 4.82208 7.84214 4.98601 7.57033 5.16875L7.0172 5.54375L4.1797 4.93125L2.58595 7.69375L4.53127 9.84688L4.48439 10.5094C4.46193 10.8361 4.46193 11.1639 4.48439 11.4906L4.53127 12.1531L2.58283 14.3063L4.17814 17.0688L7.01564 16.4578L7.56877 16.8313C7.84057 17.014 8.12457 17.1779 8.41877 17.3219L9.0172 17.6141L9.90627 20.375H13.0969L13.9875 17.6125L14.5844 17.3219C14.8783 17.1783 15.1618 17.0143 15.4328 16.8313L15.9844 16.4578L18.8235 17.0688L20.4172 14.3063L18.4703 12.1531L18.5172 11.4906C18.5397 11.1634 18.5397 10.835 18.5172 10.5078L18.4703 9.84531L20.4188 7.69375L18.8235 4.93125L15.9844 5.54063L15.4328 5.16875C15.1618 4.98567 14.8783 4.82173 14.5844 4.67812L13.9875 4.3875L13.0953 1.625H13.0938ZM11.5 6.3125C12.7432 6.3125 13.9355 6.80636 14.8146 7.68544C15.6937 8.56451 16.1875 9.7568 16.1875 11C16.1875 12.2432 15.6937 13.4355 14.8146 14.3146C13.9355 15.1936 12.7432 15.6875 11.5 15.6875C10.2568 15.6875 9.06453 15.1936 8.18545 14.3146C7.30638 13.4355 6.81252 12.2432 6.81252 11C6.81252 9.7568 7.30638 8.56451 8.18545 7.68544C9.06453 6.80636 10.2568 6.3125 11.5 6.3125ZM11.5 7.875C10.6712 7.875 9.87636 8.20424 9.29031 8.79029C8.70426 9.37634 8.37502 10.1712 8.37502 11C8.37502 11.8288 8.70426 12.6237 9.29031 13.2097C9.87636 13.7958 10.6712 14.125 11.5 14.125C12.3288 14.125 13.1237 13.7958 13.7097 13.2097C14.2958 12.6237 14.625 11.8288 14.625 11C14.625 10.1712 14.2958 9.37634 13.7097 8.79029C13.1237 8.20424 12.3288 7.875 11.5 7.875Z" fill="white"/>
</svg>
