<svg width="18" height="18" viewBox="0 0 18 18" fill="none" xmlns="http://www.w3.org/2000/svg">
<path fill-rule="evenodd" clip-rule="evenodd" d="M0.813532 9.68754C1.0587 10.5443 1.71902 11.2038 3.03882 12.5236L4.60207 14.0868C6.89996 16.3856 8.04805 17.5328 9.47462 17.5328C10.9021 17.5328 12.0501 16.3847 14.3472 14.0877C16.6451 11.7898 17.7932 10.6417 17.7932 9.21429C17.7932 7.78772 16.6451 6.63877 14.348 4.34173L12.7848 2.77848C11.4641 1.45869 10.8047 0.798364 9.94787 0.553199C9.09107 0.307179 8.18131 0.517321 6.36265 0.937605L5.31364 1.17935C3.78285 1.53215 3.01746 1.70898 2.49296 2.23263C1.96846 2.75627 1.79334 3.52337 1.43969 5.05331L1.19708 6.10231C0.777655 7.92183 0.568367 8.83074 0.813532 9.68754ZM7.64656 4.9508C7.81132 5.10969 7.94277 5.29982 8.03323 5.51008C8.12369 5.72035 8.17135 5.94652 8.17343 6.17541C8.1755 6.4043 8.13195 6.6313 8.04532 6.84317C7.95868 7.05503 7.8307 7.24751 7.66885 7.40937C7.50699 7.57122 7.31451 7.6992 7.10265 7.78584C6.89078 7.87247 6.66377 7.91602 6.43489 7.91395C6.206 7.91188 5.97983 7.86421 5.76956 7.77375C5.5593 7.68329 5.36917 7.55184 5.21028 7.38708C4.89682 7.06205 4.72349 6.62695 4.72759 6.17541C4.73168 5.72387 4.91287 5.29199 5.23217 4.97269C5.55147 4.65339 5.98335 4.4722 6.43489 4.46811C6.88643 4.46401 7.32153 4.63734 7.64656 4.9508ZM15.2732 9.03405L9.31146 14.9966C9.19058 15.1133 9.02871 15.1778 8.86073 15.1762C8.69274 15.1747 8.53208 15.1072 8.41335 14.9884C8.29462 14.8695 8.22732 14.7088 8.22594 14.5408C8.22456 14.3728 8.28921 14.211 8.40597 14.0903L14.3668 8.1277C14.487 8.00751 14.65 7.93999 14.82 7.93999C14.99 7.93999 15.153 8.00751 15.2732 8.1277C15.3934 8.24789 15.4609 8.4109 15.4609 8.58087C15.4609 8.75085 15.3934 8.91386 15.2732 9.03405Z" fill="black"/>
</svg>
