<svg width="23" height="18" viewBox="0 0 23 18" fill="none" xmlns="http://www.w3.org/2000/svg">
<path d="M17.7501 15.7708C17.3357 15.7708 16.9383 15.6062 16.6452 15.3131C16.3522 15.0201 16.1876 14.6227 16.1876 14.2083C16.1876 13.7939 16.3522 13.3965 16.6452 13.1034C16.9383 12.8104 17.3357 12.6458 17.7501 12.6458C18.1645 12.6458 18.5619 12.8104 18.8549 13.1034C19.148 13.3965 19.3126 13.7939 19.3126 14.2083C19.3126 14.6227 19.148 15.0201 18.8549 15.3131C18.5619 15.6062 18.1645 15.7708 17.7501 15.7708ZM19.3126 6.39579L21.3542 8.99996H16.7084V6.39579M5.25008 15.7708C4.83568 15.7708 4.43825 15.6062 4.14523 15.3131C3.8522 15.0201 3.68758 14.6227 3.68758 14.2083C3.68758 13.7939 3.8522 13.3965 4.14523 13.1034C4.43825 12.8104 4.83568 12.6458 5.25008 12.6458C5.66448 12.6458 6.06191 12.8104 6.35494 13.1034C6.64796 13.3965 6.81258 13.7939 6.81258 14.2083C6.81258 14.6227 6.64796 15.0201 6.35494 15.3131C6.06191 15.6062 5.66448 15.7708 5.25008 15.7708ZM19.8334 4.83329H16.7084V0.666626H2.12508C0.968831 0.666626 0.041748 1.59371 0.041748 2.74996V14.2083H2.12508C2.12508 15.0371 2.45432 15.832 3.04037 16.418C3.62642 17.0041 4.42128 17.3333 5.25008 17.3333C6.07888 17.3333 6.87374 17.0041 7.45979 16.418C8.04584 15.832 8.37508 15.0371 8.37508 14.2083H14.6251C14.6251 15.0371 14.9543 15.832 15.5404 16.418C16.1264 17.0041 16.9213 17.3333 17.7501 17.3333C18.5789 17.3333 19.3737 17.0041 19.9598 16.418C20.5458 15.832 20.8751 15.0371 20.8751 14.2083H22.9584V8.99996L19.8334 4.83329Z" fill="white"/>
</svg>
