<svg width="15" height="15" viewBox="0 0 15 15" fill="none" xmlns="http://www.w3.org/2000/svg">
<path d="M11.3122 11.6878C10.4494 12.5508 9.33163 13.1131 8.12439 13.2917C6.91715 13.4702 5.6845 13.2555 4.60875 12.6792C3.53301 12.1029 2.6713 11.1957 2.15108 10.0918C1.63086 8.98785 1.47976 7.74579 1.72012 6.54932C1.96048 5.35285 2.57955 4.26551 3.48575 3.44812C4.39195 2.63074 5.53716 2.12672 6.752 2.01061C7.96684 1.8945 9.18679 2.17247 10.2314 2.80341C11.276 3.43434 12.0899 4.38474 12.5525 5.51402M12.5525 5.51402L13.0531 4.05313M12.5525 5.51402L11.0213 5.31002" stroke="#000032" stroke-width="2" stroke-linecap="round" stroke-linejoin="round"/>
</svg>
