<svg width="16" height="16" viewBox="0 0 16 16" fill="none" xmlns="http://www.w3.org/2000/svg">
    <path fill-rule="evenodd" clip-rule="evenodd" d="M7.81264 0.429805C8.09571 0.326784 8.40602 0.326784 8.68908 0.429805L15.0958 2.7593C15.343 2.84926 15.5565 3.0131 15.7074 3.22858C15.8582 3.44407 15.9391 3.70075 15.939 3.96378V14.4068C15.939 14.7466 15.804 15.0726 15.5637 15.3129C15.3234 15.5532 14.9975 15.6882 14.6576 15.6882H1.8441C1.50426 15.6882 1.17834 15.5532 0.938044 15.3129C0.697743 15.0726 0.562744 14.7466 0.562744 14.4068V3.96378C0.562665 3.70075 0.643535 3.44407 0.794372 3.22858C0.945209 3.0131 1.15871 2.84926 1.40587 2.7593L7.81264 0.429805ZM8.25086 1.63428L1.8441 3.96378V10.5627H6.96951V9.28139C6.96951 8.94155 7.10451 8.61564 7.34481 8.37534C7.58511 8.13504 7.91103 8.00004 8.25086 8.00004H14.6576V3.96378L8.25086 1.63428ZM5.04748 13.1254V14.4068H3.76613V13.1254H5.04748ZM10.8136 14.4068H12.0949V11.8441H10.8136V14.4068Z" fill="black" />
</svg>